<?xml version="1.0" encoding="UTF-8" standalone="no" ?>
<!DOCTYPE svg PUBLIC "-//W3C//DTD SVG 1.1//EN" "http://www.w3.org/Graphics/SVG/1.1/DTD/svg11.dtd">
<svg xmlns="http://www.w3.org/2000/svg" xmlns:xlink="http://www.w3.org/1999/xlink" version="1.1" width="1280" height="1024" viewBox="0 0 1280 1024" xml:space="preserve">
<desc>Created with Fabric.js 5.3.0</desc>
<defs>
</defs>
<g transform="matrix(1 0 0 1 640 512)" id="background-logo"  >
<rect style="stroke: none; stroke-width: 0; stroke-dasharray: none; stroke-linecap: butt; stroke-dashoffset: 0; stroke-linejoin: miter; stroke-miterlimit: 4; fill: rgb(6,53,49); fill-rule: nonzero; opacity: 1;"  paint-order="stroke"  x="-640" y="-512" rx="0" ry="0" width="1280" height="1024" />
</g>
<g transform="matrix(1.9211538461538462 0 0 1.9211538461538462 640 495.8189000768133)" id="logo-logo"  >
<g style=""  paint-order="stroke"   >
		<g transform="matrix(1.15107704366831 0 0 1.15107704366831 0.37336294756477173 -88.99360191923802)"  >
<linearGradient id="SVGID_1_497295" gradientUnits="userSpaceOnUse" gradientTransform="matrix(1 0 0 1 0 0)"  x1="415.4451294" y1="398.9954224" x2="626.5227661" y2="398.9954224">
<stop offset="0%" style="stop-color:rgb(180,127,45);stop-opacity: 1"/>
<stop offset="16.94122%" style="stop-color:rgb(249,218,142);stop-opacity: 1"/>
<stop offset="23.979020000000002%" style="stop-color:rgb(183,130,48);stop-opacity: 1"/>
<stop offset="77.25844%" style="stop-color:rgb(181,129,47);stop-opacity: 1"/>
<stop offset="86.84503%" style="stop-color:rgb(253,213,133);stop-opacity: 1"/>
<stop offset="98.13883%" style="stop-color:rgb(180,128,46);stop-opacity: 1"/>
</linearGradient>
<path style="stroke: none; stroke-width: 1; stroke-dasharray: none; stroke-linecap: butt; stroke-dashoffset: 0; stroke-linejoin: miter; stroke-miterlimit: 4; fill: url(#SVGID_1_497295); fill-rule: nonzero; opacity: 1;"  paint-order="stroke"  transform=" translate(-520.9839360504843, -398.9954141028129)" d="M 616.4002686 382.3811646 C 608.2428589 385.63729859999995 600.0853882 388.8934021 591.9279786 392.1495362 C 591.9279786 392.1495362 591.9279786 392.1495362 591.9280395999999 392.1495362 C 602.291626 392.8938904 612.6551513999999 393.6382447 623.0187377999999 394.3826295 C 622.8755493 395.2021791 622.4804076999999 396.6871949 621.2538451999999 397.9124757 C 619.3073119999999 399.8568727 616.0833129999999 400.3316957 613.0469359999998 399.14788830000003 C 605.8990477999998 399.9126893 598.7511595999998 400.6774904 591.6032713999998 401.44229140000004 C 589.3706053999998 404.61642470000004 587.1379393999998 407.79052750000005 584.9052733999998 410.96466080000005 C 585.3142088999998 410.7614442 585.7230834999998 410.5583192 586.1320189999998 410.35510270000003 C 588.3162230999998 410.2517091 590.5003661999998 410.1483461 592.6845702999998 410.04492200000004 C 590.9268798999998 412.91336070000006 589.1692504999997 415.78176890000003 587.4115599999998 418.65020760000004 C 589.9485472999997 417.6926576 593.4099730999998 416.0274964 596.8538817999997 413.09069830000004 C 598.1986083999997 411.9440003 599.3293456999997 410.78298960000006 600.2750243999998 409.68563850000004 C 605.5029906999998 409.43814090000006 610.7310180999998 409.19064340000006 615.9590453999998 408.9431458 C 615.8660888999998 409.8945618 615.5729979999998 411.4454041 614.4588622999999 412.73773200000005 C 612.6164550999998 414.87490850000006 609.6170653999999 415.04245000000003 608.7229003999998 415.1203919000001 C 605.3497924999998 415.4142457000001 598.2507323999998 417.3672791000001 582.0726928999999 424.2979127000001 C 581.7100219999999 424.3246766000001 575.6134032999998 424.6851808000001 572.9833984999999 420.5033876000001 C 572.5805053999999 419.86273210000013 572.0913696999999 418.8490907000001 571.9244385 417.4147646000001 C 571.6876221 415.71374530000014 571.489563 412.6560976000001 572.5715942999999 409.09024070000015 C 573.5138549999999 405.98501610000017 575.0375976999999 403.7771609000001 576.0720214999999 402.50119040000016 C 580.6117553999999 395.20623800000016 585.1514892999999 387.91128560000016 589.6912231999999 380.61627220000014 C 601.9672241999998 378.30227680000013 614.2432251999999 375.98828150000014 626.5191650999999 373.67428610000013 C 626.5368042999999 374.2401430000001 626.5841674999999 377.48568750000015 624.0482788999999 380.02795430000015 C 620.9701538 383.1138306 616.7923584 382.4504089 616.4002686 382.3811646 z M 465.8958435 402.5011902 C 461.3561096 395.2062378 456.81637570000004 387.9112854 452.2766113 380.616272 C 440.0006714 378.30227659999997 427.72467040000004 375.9882813 415.4486999 373.6742859 C 415.4310913 374.24014279999994 415.3836975 377.4856873 417.9195861 380.0279541 C 420.9976806 383.1138306 425.175537 382.4504089 425.5675658 382.3811645 C 433.725006 385.6372985 441.8824767 388.89340200000004 450.03991690000004 392.14953610000003 C 450.0398559 392.14953610000003 450.0398559 392.14953610000003 450.0398253 392.14953610000003 C 439.6762694 392.8938903 429.312683 393.6382446 418.9491271 394.38262940000004 C 419.0923461 395.20217900000006 419.4874572 396.68719480000004 420.7140197 397.91247560000005 C 422.66055289999997 399.85687260000003 425.8845519 400.33169560000005 428.9208984 399.14788820000007 C 436.0687866 399.91268920000005 443.2167358 400.67749030000004 450.3645935 401.4422913000001 C 452.5972595 404.6164246000001 454.829895 407.7905274000001 457.062561 410.9646607000001 C 456.653656 410.76144410000006 456.24478150000004 410.55831910000006 455.83584590000004 410.35510260000007 C 453.65167230000003 410.25170900000006 451.46746820000004 410.14834600000006 449.28329460000003 410.0449219000001 C 451.04098500000003 412.9133606000001 452.7986144 415.78176880000007 454.55627430000004 418.6502075000001 C 452.019287 417.69265750000005 448.5578917 416.02749630000005 445.1140136 413.0906982000001 C 443.76925650000004 411.94400020000006 442.63848870000004 410.7829895000001 441.692871 409.6856384000001 C 436.4648437 409.4381408000001 431.23681630000004 409.1906433000001 426.00878900000004 408.94314570000006 C 426.10177610000005 409.89456170000005 426.39489740000005 411.44540400000005 427.50900260000003 412.7377319000001 C 429.35144030000004 414.8749084000001 432.35079950000005 415.04244990000007 433.24493400000006 415.1203918000001 C 436.6180724000001 415.41424560000013 443.7171630000001 417.3672790000001 459.8951415000001 424.29791260000013 C 460.2578124000001 424.3246765000001 466.35443110000006 424.68518070000016 468.9844970000001 420.50338750000014 C 469.38739010000006 419.86273200000016 469.8764953000001 418.8490906000001 470.04339590000006 417.41476450000016 C 470.2802733000001 415.7137452000002 470.4783019000001 412.65609750000016 469.39627070000006 409.0902406000002 C 468.4540405 405.9850159 466.9302979 403.7771606 465.8958435 402.5011902 z" stroke-linecap="round" />
</g>
		<g transform="matrix(1.15107704366831 0 0 1.15107704366831 0.37335331605163447 -38.977278364383096)"  >
<linearGradient id="SVGID_2_497296" gradientUnits="userSpaceOnUse" gradientTransform="matrix(1 0 0 1 0 0)"  x1="520.9839478" y1="531.6930542" x2="520.9839478" y2="353.2012939">
<stop offset="0%" style="stop-color:rgb(131,80,29);stop-opacity: 1"/>
<stop offset="33.23442%" style="stop-color:rgb(217,172,92);stop-opacity: 1"/>
<stop offset="42.926520000000004%" style="stop-color:rgb(197,148,68);stop-opacity: 1"/>
<stop offset="61.898489999999995%" style="stop-color:rgb(253,214,134);stop-opacity: 1"/>
<stop offset="100%" style="stop-color:rgb(174,121,41);stop-opacity: 1"/>
</linearGradient>
<path style="stroke: none; stroke-width: 1; stroke-dasharray: none; stroke-linecap: butt; stroke-dashoffset: 0; stroke-linejoin: miter; stroke-miterlimit: 4; fill: url(#SVGID_2_497296); fill-rule: nonzero; opacity: 1;"  paint-order="stroke"  transform=" translate(-520.9839276830921, -442.4471742000001)" d="M 550.1499634 428.7505493 C 550.6312866000001 418.19421389999997 549.8740845000001 408.9095154 548.7452393000001 401.3246155 C 553.4191895000001 397.1329956 558.2246094000001 392.5897522 563.0998536000001 387.6759339 C 568.6666871000001 382.0650025 573.7557374 376.54422 578.3958131 371.20339970000003 C 585.748047 368.84078980000004 593.6928712 365.912323 602.0456544000001 362.26116950000005 C 608.7851564000001 359.31521610000004 614.984131 356.2511597000001 620.6361085000001 353.2012940000001 C 620.9511109000001 353.9418641000001 622.1269532000001 356.9434510000001 620.9521485000001 360.5252991000001 C 619.8135377000001 363.9969483000001 617.2224122000001 365.7096558000001 616.5179444000001 366.1439820000001 C 609.3798829000001 369.90911870000014 602.2417603000001 373.6742860000001 595.1036378000001 377.43942270000014 C 593.2994996000001 378.49838270000015 591.4953614000001 379.55731210000016 589.6912232000001 380.6162721000001 C 584.0230713000001 388.30374160000014 578.3548585000001 395.99124160000014 572.6867066000001 403.6787111000001 C 570.8034669000001 406.2328493000001 569.5676880000001 409.2356569000001 569.2973023000001 412.3974611000001 C 568.9645997000001 416.2867433000001 570.0113526000001 419.4637758000001 572.1597291 420.9740297000001 C 574.8421632000001 422.8595888000001 578.4934083 421.8271486000001 580.3780519000001 421.28311170000006 C 589.2887575000001 418.71066300000007 591.1692506 411.1061708000001 599.3464967000001 409.6410829000001 C 600.4232789000001 409.4481203000001 603.0017091000001 409.0187074000001 604.1990358 410.3985292000001 C 605.2777101 411.6416322000001 604.7156374 413.7542421000001 604.5165407000001 414.5026552000001 C 602.4801027000001 422.15670790000013 588.0048830000001 427.6648866000001 580.04303 438.6231691000001 C 580.0429690000001 438.6232301000001 576.6367190000001 443.3114320000001 573.9246828 453.3307802000001 C 569.0451052000001 471.3582155000001 582.6444704 502.3493654000001 610.8228762 531.6930544000002 L 573.4108279 531.6930544000002 C 563.8946536 508.20004290000014 554.3785402999999 484.70709250000016 544.862366 461.2140810000002 C 547.2756958 452.7284851 549.5587769 441.7170715 550.1499634 428.7505493 z M 491.8179321 428.7505493 C 491.3366089 418.19421389999997 492.09375 408.9095154 493.2226257 401.3246155 C 488.548706 397.1329956 483.7432556 392.5897522 478.8680114 387.6759339 C 473.3011474 382.0650025 468.2121276 376.54422 463.5720519 371.20339970000003 C 456.2197875 368.84078980000004 448.2749938 365.912323 439.9221801 362.26116950000005 C 433.1827087 359.31521610000004 426.9837035 356.2511597000001 421.3317565 353.2012940000001 C 421.01675409999996 353.9418641000001 419.84091179999996 356.9434510000001 421.0156859 360.5252991000001 C 422.1542967 363.9969483000001 424.7454222 365.7096558000001 425.44989 366.1439820000001 C 432.587982 369.90911870000014 439.72613509999996 373.6742860000001 446.86422719999996 377.43942270000014 C 448.66836539999997 378.49838270000015 450.472473 379.55731210000016 452.27661119999993 380.6162721000001 C 457.94476309999993 388.30374160000014 463.6129758999999 395.99124160000014 469.2811277999999 403.6787111000001 C 471.1643674999999 406.2328493000001 472.4001463999999 409.2356569000001 472.6705625999999 412.3974611000001 C 473.00323469999995 416.2867433000001 471.95651229999993 419.4637758000001 469.8081052999999 420.9740297000001 C 467.1256711999999 422.8595888000001 463.4744565999999 421.8271486000001 461.5898435999999 421.28311170000006 C 452.6791074999999 418.71066300000007 450.7985837999999 411.1061708000001 442.62136829999986 409.6410829000001 C 441.54455559999985 409.4481203000001 438.96618639999986 409.0187074000001 437.76882919999986 410.3985292000001 C 436.69015489999987 411.6416322000001 437.2521970999999 413.7542421000001 437.45132429999984 414.5026552000001 C 439.48773179999984 422.15670790000013 453.96295149999986 427.6648866000001 461.92483499999986 438.6231691000001 C 461.92486549999984 438.6232301000001 465.3311765999999 443.3114320000001 468.04315169999984 453.3307802000001 C 472.92275989999985 471.3582155000001 459.3233640999998 502.3493654000001 431.14501939999985 531.6930544000002 L 468.55706769999983 531.6930544000002 C 478.07321149999984 508.20004290000014 487.5893247999998 484.70709250000016 497.1054685999998 461.2140810000002 C 494.6921997 452.7284851 492.4090881 441.7170715 491.8179321 428.7505493 z" stroke-linecap="round" />
</g>
		<g transform="matrix(1.15107704366831 0 0 1.15107704366831 0.37334853274290936 42.524111463657846)"  >
<linearGradient id="SVGID_3_497297" gradientUnits="userSpaceOnUse" gradientTransform="matrix(1 0 0 1 0 0)"  x1="391.772522" y1="513.2516479" x2="648.9391479" y2="513.2516479">
<stop offset="0%" style="stop-color:rgb(131,80,29);stop-opacity: 1"/>
<stop offset="21.564639999999997%" style="stop-color:rgb(241,208,131);stop-opacity: 1"/>
<stop offset="29.508079999999996%" style="stop-color:rgb(152,100,36);stop-opacity: 1"/>
<stop offset="67.88952%" style="stop-color:rgb(179,126,44);stop-opacity: 1"/>
<stop offset="84.56882%" style="stop-color:rgb(249,218,142);stop-opacity: 1"/>
<stop offset="100%" style="stop-color:rgb(174,121,41);stop-opacity: 1"/>
</linearGradient>
<path style="stroke: none; stroke-width: 1; stroke-dasharray: none; stroke-linecap: butt; stroke-dashoffset: 0; stroke-linejoin: miter; stroke-miterlimit: 4; fill: url(#SVGID_3_497297); fill-rule: nonzero; opacity: 1;"  paint-order="stroke"  transform=" translate(-520.983923527585, -513.2516353577939)" d="M 569.3359375 514.6322021 C 579.7877197 508.9444274 584.7679443 513.3306274 602.9869385 507.33718869999996 C 615.7642823 503.1339111 623.2245484 499.68926999999996 623.2246094 499.6892394999999 C 629.3336792 496.86849979999994 634.2777709999999 494.0813903999999 640.8737792999999 494.98278809999994 C 642.6744994999999 495.2288818999999 647.2399291999999 495.8527831999999 648.8746947999999 499.2185973999999 C 649.796936 501.1172484999999 650.076477 504.4851683999999 647.9334105999999 505.9252623999999 C 646.1078490999998 507.1520079999999 643.2075194999999 506.5207213999999 642.1680907999998 504.9839781999999 C 641.1354979999999 503.4574583999999 642.5199584999998 501.8961180999999 641.6974486999999 500.2775267999999 C 640.3562621999998 497.6383055999999 634.7991942999998 498.00320429999994 634.2847289999999 498.0419615999999 C 625.2602538999998 498.7218016999999 619.6286010999999 511.1422728999999 618.8711547999999 512.8672485 C 622.4794311999999 513.1026000999999 626.0877685999999 513.3378905999999 629.6959838999999 513.5732422 C 627.8951415999999 516.2485352 624.9672851999999 519.6796264999999 620.4526366999999 521.6769409 C 613.6916503999998 524.6680298 609.0440062999999 521.934143 595.5742797999999 520.3975829999999 C 585.2005004999999 519.2141723999999 576.8830566999999 518.3286743 568.2769775999999 521.4565429999999 C 560.9915161999999 524.1043700999999 556.0428466999999 528.6287231999999 553.2163696999999 531.6930541999999 C 558.5690918 521.8638916 564.7394409 517.133606 569.3359375 514.6322021 z M 472.631958 514.6322021 C 462.1801758 508.9444274 457.1998901 513.3306274 438.980896 507.33718869999996 C 426.2035828 503.1339111 418.7432861 499.68926999999996 418.7432556 499.6892394999999 C 412.6341858 496.86849979999994 407.6901245 494.0813903999999 401.0940857 494.98278809999994 C 399.2933655 495.2288818999999 394.7279663 495.8527831999999 393.0931397 499.2185973999999 C 392.170929 501.1172484999999 391.89135749999997 504.4851683999999 394.0344239 505.9252623999999 C 395.85998539999997 507.1520079999999 398.760315 506.5207213999999 399.7997742 504.9839781999999 C 400.832367 503.4574583999999 399.4479065 501.8961180999999 400.2704163 500.2775267999999 C 401.6116028 497.6383055999999 407.1686707 498.00320429999994 407.6831055 498.0419615999999 C 416.7076111 498.7218016999999 422.3392639 511.1422728999999 423.0966797 512.8672485 C 419.48843389999996 513.1026000999999 415.88012699999996 513.3378905999999 412.2718506 513.5732422 C 414.0727234 516.2485352 417.00057979999997 519.6796264999999 421.5151978 521.6769409 C 428.2761841 524.6680298 432.9238587 521.934143 446.3935853 520.3975829999999 C 456.7673646 519.2141723999999 465.0848084 518.3286743 473.6909181 521.4565429999999 C 480.9763185 524.1043700999999 485.9250184 528.6287231999999 488.75152599999996 531.6930541999999 C 483.3987732 521.8638916 477.2284241 517.133606 472.631958 514.6322021 z" stroke-linecap="round" />
</g>
		<g transform="matrix(1.15107704366831 0 0 1.15107704366831 0.37336614796845424 -7.260618635078231)"  >
<linearGradient id="SVGID_4_497298" gradientUnits="userSpaceOnUse" gradientTransform="matrix(1 0 0 1 0 0)"  x1="520.9839478" y1="531.6930542" x2="520.9839478" y2="408.3091125">
<stop offset="0%" style="stop-color:rgb(131,80,29);stop-opacity: 1"/>
<stop offset="33.23442%" style="stop-color:rgb(217,172,92);stop-opacity: 1"/>
<stop offset="42.926520000000004%" style="stop-color:rgb(197,148,68);stop-opacity: 1"/>
<stop offset="61.898489999999995%" style="stop-color:rgb(253,214,134);stop-opacity: 1"/>
<stop offset="100%" style="stop-color:rgb(174,121,41);stop-opacity: 1"/>
</linearGradient>
<path style="stroke: none; stroke-width: 1; stroke-dasharray: none; stroke-linecap: butt; stroke-dashoffset: 0; stroke-linejoin: miter; stroke-miterlimit: 4; fill: url(#SVGID_4_497298); fill-rule: nonzero; opacity: 1;"  paint-order="stroke"  transform=" translate(-520.9839388308401, -470.0010724414494)" d="M 542.0385132 484.157959 C 538.9973755 485.0322571 537.6679077 487.601532 537.4497681 488.0407715 C 537.5782471 483.6612854 538.3265381 476.8244019 541.5678711 469.2150269 C 544.0921631 463.289032 547.2846069000001 458.8757325 549.8041992000001 455.9193116 C 548.0557861000001 454.999817 545.9696045000001 455.0855408 544.3917236000001 456.1546632 C 542.4174194000001 457.4924012 542.1831665000001 459.72998060000003 542.1561889000001 460.03744520000004 C 540.2421264000001 455.56204240000005 538.1958007000001 448.98815930000006 538.7440795000001 441.21167010000005 C 539.7012939000001 427.63275160000006 547.8439330000001 420.67810080000004 544.0387572000001 413.79669210000003 C 542.0774535 410.24981710000003 537.6416014000001 408.01422140000005 533.5588378000001 408.3406069 C 529.3295898000001 408.6787417 525.2100219000001 412.00967430000003 524.2717284000001 416.179352 C 523.7084349000002 418.6822817 524.0688475000002 422.6163027 526.4779052000001 423.7684633 C 527.9354858000002 424.46554580000003 530.4067382000002 424.2704164 531.4196166000002 422.6212465 C 532.2850341000002 421.212311 531.6107177000001 419.5158998 531.5078734000001 419.2679445 C 529.0650023000001 420.3107607 526.5900878000001 419.4253847 525.8601683 417.8559572 C 525.0423582000001 416.09744279999995 526.6369627 413.9565737 527.9780272 413.0024721 C 530.5299681 411.18679829999996 533.7043456 412.57247939999996 534.0670165 412.73773209999996 C 536.5536498 413.87091079999993 537.5931395 416.22198499999996 537.949829 417.06176769999996 C 539.8859252 421.62045299999994 537.4780883 425.11923229999996 536.5705565000001 431.88534559999994 C 536.1952513000001 434.68325819999995 535.9900511000001 438.68426529999994 536.8614501000001 443.6825867999999 C 536.6456298 442.7362061999999 535.7681884000001 439.4188843999999 532.5668334000001 436.9170838999999 C 529.3143920000001 434.3753663999999 525.8190307000001 434.35998549999994 524.8600463 434.3873597999999 C 529.2006225 441.1982728999999 534.4069213 451.7524720999999 534.1552734 464.6262513999999 C 533.8969116000001 477.8400269999999 528.0789795000001 483.7539063999999 526.566101 498.1596070999999 C 525.7597045 505.8382264999999 526.0430297 517.2002564999999 531.8609008 531.6930543999999 C 531.3881835 523.3127443 531.8956297999999 508.7696229999999 540.03833 494.15914939999993 C 542.1435546 490.3816835999999 544.456787 487.14230369999996 546.744995 484.39331079999994 C 546.1154785 484.148468 544.2557373 483.5205994 542.0385132 484.157959 z M 527.6397705 421.9594421 C 528.6397705 422.459198 529.5570068000001 422.6338195 530.1687622000001 422.699768 C 528.6948852 423.5089111 526.9743042 423.3187866 525.970459 422.3124084 C 525.0525513 421.3921813 525.0767822 420.1331787 525.0880127 419.8635864 C 525.5057983 420.4003906 526.3223877 421.3010254 527.6397705 421.9594421 z M 536.7143555 412.6053772 C 535.6390992 411.7788391 534.4906617 411.40798950000004 533.5816651 411.2375488 C 536.1400147 410.6753845 538.7871094 411.79605100000003 540.1560059 414.0173034 C 541.5419922 416.2662963 541.3293457 419.1757201 539.6264649 421.20932 C 539.6798706 420.8409729 540.3818359 415.4244995 536.7143555 412.6053772 z M 530.7136841 499.8363037 C 530.1413574000001 507.15463259999996 530.0623779 513.9299927 530.2723999 520.0446167 C 529.0002441 515.2943726 527.6302489999999 507.7333984 528.7722778 498.60086060000003 C 529.5214843 492.6094666 531.1348266 487.6775513 532.6550903 484.04028320000003 C 531.8392944 488.8938293 531.1564941 494.1733398 530.7136841 499.8363037 z M 535.7436523 463.6555481 C 535.7064819 459.1861267 535.125122 453.177063 532.8609619 446.5064392 C 531.7719116 443.29791259999996 530.4881592 440.5096741 529.2134399 438.1525268 C 530.9217529 439.78866569999997 533.4154052 442.6252136 535.0965576 446.8005981 C 538.1625977 454.4155273 536.4434814 461.3112793 535.7436523 463.6555481 z M 495.2228699 484.3933105 C 497.5110474 487.1423034 499.8243103 490.38168329999996 501.92956549999997 494.1591491 C 510.07223519999997 508.76962269999996 510.5796509 523.3127441 510.1069947 531.6930540999999 C 515.9248658 517.2002561999999 516.20813 505.83822619999995 515.4017335 498.15960679999995 C 513.8889161 483.75390609999994 508.070923 477.84002669999995 507.8125917 464.62625109999993 C 507.56091319999996 451.7524717999999 512.7672120999999 441.19827259999994 517.1078493 434.38735949999995 C 516.1488039 434.3599851999999 512.6534426 434.37536609999995 509.4010317 436.91708359999996 C 506.1996767 439.41888409999996 505.3222353 442.73620589999996 505.10641499999997 443.68258649999996 C 505.97778339999996 438.684265 505.77261369999997 434.68325789999994 505.39733909999995 431.8853453 C 504.48980739999996 425.119232 502.08193989999995 421.6204527 504.01806659999994 417.0617674 C 504.37472549999995 416.2219847 505.41421529999997 413.87091050000004 507.90084859999996 412.7377318 C 508.2635195 412.5724791 511.43786639999996 411.186798 513.9898072999999 413.0024718 C 515.3308718 413.9565734 516.9255373 416.0974425 516.1076661999999 417.8559569 C 515.3778077999999 419.42538440000004 512.9028321999999 420.31076040000005 510.4599915999999 419.26794420000004 C 510.3571473999999 419.51589950000005 509.6828309999999 421.21231070000005 510.5482178999999 422.62124620000003 C 511.5611573999999 424.27041610000003 514.0324097999999 424.4655455 515.4899903999999 423.76846300000005 C 517.8989869999999 422.61630240000005 518.2593995999999 418.6822814000001 517.6961671999999 416.17935170000004 C 516.7578126999999 412.009674 512.6383058999999 408.6787413 508.4089967999999 408.34060660000006 C 504.3262635999999 408.01422110000004 499.8903810999999 410.2498168000001 497.92907739999987 413.7966918000001 C 494.1239626999999 420.6781005000001 502.26654079999986 427.6327514000001 503.2238161999999 441.2116698000001 C 503.77203399999985 448.9881591000001 501.7257387999999 455.5620421000001 499.8116457999999 460.0374449000001 C 499.7846987999999 459.7299803000001 499.5504457999999 457.4924010000001 497.5761110999999 456.15466290000006 C 495.99826079999985 455.08554060000006 493.91207909999986 454.99981670000005 492.16366599999986 455.91931130000006 C 494.68328879999984 458.8757322000001 497.87567159999986 463.2890318000001 500.39996359999986 469.21502660000004 C 503.64132709999984 476.82440160000004 504.38961809999984 483.66128510000004 504.51809709999986 488.04077120000005 C 504.2999268999999 487.60153170000007 502.97048969999986 485.0322568 499.92932149999984 484.15795870000005 C 497.7120972 483.5205994 495.8523865 484.148468 495.2228699 484.3933105 z M 516.8798828 419.8635864 C 516.8911133 420.1331787 516.9153442 421.39218139999997 515.9974365 422.3124084 C 514.9935303000001 423.31878659999995 513.2730102 423.5089111 511.79910280000007 422.699768 C 512.4108277 422.6338195 513.3281250000001 422.4591979 514.328064 421.9594421 C 515.6454468 421.3010254 516.4620361 420.4003906 516.8798828 419.8635864 z M 502.3413696 421.2093201 C 500.6385193 419.1757202 500.4258728 416.2662964 501.81188960000003 414.0173035 C 503.18078610000003 411.7960511 505.8278503 410.67538460000003 508.38623040000004 411.23754890000004 C 507.47720330000004 411.4079896 506.32873530000006 411.77883920000005 505.25350950000006 412.60537730000004 C 501.5860291 415.4244995 502.2880249 420.8409729 502.3413696 421.2093201 z M 509.3127747 484.0402832 C 510.8330079 487.6775513 512.4463501 492.6094665 513.1955567 498.6008606 C 514.3375855 507.7333984 512.9676514 515.2943726 511.6954346 520.0446167 C 511.9054566 513.9299927 511.8264771 507.1546326 511.2542115 499.83630370000003 C 510.8113708 494.1733398 510.1286011 488.8938293 509.3127747 484.0402832 z M 506.8713074 446.8005981 C 508.5524597 442.6252136 511.04611209999996 439.7886657 512.7543946 438.1525268 C 511.47967539999996 440.50967399999996 510.19592289999997 443.2979125 509.10690309999995 446.5064392 C 506.84274289999996 453.177063 506.26138309999993 459.1861267 506.2241822 463.6555481 C 505.5244141 461.3112793 503.8052979 454.4155273 506.8713074 446.8005981 z M 615.9620361 464.3092957 C 615.0914306 460.3119507 612.453125 457.37152100000003 612.4586181 451.56588750000003 C 612.4612426 448.8076783 613.0595092 446.5410157 613.576477 445.03567510000005 C 612.9217529 445.20831300000003 611.2888183 445.73587040000007 610.0177001 447.29229740000005 C 609.3297729 448.13464360000006 608.9877318 448.98468020000007 608.8111571 449.56564330000003 C 607.5865477 448.3454285 605.5577390999999 446.0079956 604.222412 442.47656250000006 C 602.8469848 438.83914180000005 602.8571165999999 435.65380860000005 602.9869384 433.91671750000006 C 601.6956176 434.43310540000004 597.8771972 436.1552429000001 595.9225463 440.23657220000007 C 594.3309325 443.55990590000005 594.8008422 446.7235107000001 594.9565429 447.68307490000007 C 596.4640502000001 456.97241210000004 607.0287475 458.06793210000006 610.7525634000001 467.62658690000006 C 611.7578124000001 470.2069397000001 612.6159057000001 474.30609130000005 611.1055907000001 480.3339844000001 C 616.3327637 472.9802856 616.7208862 467.7935181 615.9620361 464.3092957 z M 596.8980103 446.624115 C 596.5743409 443.4889832 597.8930054 441.0523377 598.4863892 440.09390260000004 C 598.3029174999999 441.72595220000005 598.2135621 444.4357605 599.1629638999999 447.56539920000006 C 600.4307862 451.74462890000007 602.8646240999999 454.4097596000001 604.1341552999999 455.62515260000004 C 600.1148071 453.9862976 597.3028564 450.5456238 596.8980103 446.624115 z M 430.8622742 480.3339844 C 429.3519287 474.30609130000005 430.2100525 470.2069397 431.2153015 467.6265869 C 434.9390869 458.0679321 445.5038147 456.9724121 447.0112915 447.6830749 C 447.1670227 446.7235107 447.63690190000005 443.559906 446.04528810000005 440.2365722 C 444.09066770000004 436.1552429 440.27224730000006 434.4331054 438.98089600000003 433.9167175 C 439.11071780000003 435.6538086 439.1208801 438.8391418 437.74545290000003 442.4765625 C 436.41012580000006 446.0079956 434.3813172 448.3454285 433.1566773 449.5656433 C 432.9801636 448.98468019999996 432.6380616 448.1346435 431.9501343 447.2922974 C 430.6790467 445.7358704 429.0460816 445.208313 428.3914185 445.0356751 C 428.90838629999996 446.5410157 429.50659179999997 448.80767829999996 429.5092164 451.5658875 C 429.5147096 457.371521 426.87646490000003 460.31195069999995 426.00582890000004 464.30929569999995 C 425.2470093 467.7935181 425.6351013 472.9802856 430.8622742 480.3339844 z M 437.8337402 455.6251526 C 439.10327140000004 454.40975949999995 441.5370788 451.74462889999995 442.8049011 447.5653992 C 443.754303 444.4357605 443.664917 441.7259522 443.4814758 440.0939026 C 444.0748291 441.05233769999995 445.3935241 443.4889832 445.0698852 446.62411499999996 C 444.6650085 450.5456238 441.8530579 453.9862976 437.8337402 455.6251526 z" stroke-linecap="round" />
</g>
		<g transform="matrix(1.15107704366831 0 0 1.15107704366831 0.37335884751735193 16.081435836384685)"  >
<linearGradient id="SVGID_5_497299" gradientUnits="userSpaceOnUse" gradientTransform="matrix(1 0 0 1 0 0)"  x1="520.9839478" y1="531.6930542" x2="520.9839478" y2="448.8659973">
<stop offset="0%" style="stop-color:rgb(131,80,29);stop-opacity: 1"/>
<stop offset="28.279500000000002%" style="stop-color:rgb(253,214,134);stop-opacity: 1"/>
<stop offset="51.08768%" style="stop-color:rgb(179,126,44);stop-opacity: 1"/>
<stop offset="72.97922%" style="stop-color:rgb(249,218,142);stop-opacity: 1"/>
<stop offset="100%" style="stop-color:rgb(174,121,41);stop-opacity: 1"/>
</linearGradient>
<path style="stroke: none; stroke-width: 1; stroke-dasharray: none; stroke-linecap: butt; stroke-dashoffset: 0; stroke-linejoin: miter; stroke-miterlimit: 4; fill: url(#SVGID_5_497299); fill-rule: nonzero; opacity: 1;"  paint-order="stroke"  transform=" translate(-520.9839324885617, -490.2795191360992)" d="M 557.0991211 511.2200012 C 567.1678467 497.9839783 593.8286133 499.6363525 602.2513428000001 487.9199219 C 604.1760254000001 485.2425232 604.9871826000001 482.2754517 604.9871826000001 482.2753907 C 606.6375122000001 476.238617 604.4984131000001 470.7257996 603.1634521000001 467.9795838 C 601.9868164000001 469.3327027 600.8102417000001 470.6857606 599.6336059000001 472.0388795 C 599.0001220000001 470.828888 594.6213378000001 462.7835389 585.5731201000001 461.0964051 C 581.6299438000001 460.36114510000004 578.2951660000001 461.1121827 576.3367309000001 461.74353030000003 C 576.2892455000001 463.2839051 576.3599853000002 465.21151740000005 576.7485351000001 467.3912659 C 577.1296997000002 469.5293579 577.7136840000002 471.3323365 578.2781372000002 472.7448731 C 580.0968018000002 472.8677674 592.1257324000002 473.83825690000003 595.6919556000001 481.8047486 C 596.1269532000001 482.77642829999996 597.1511841000001 485.0644532 596.6332398000002 487.3936463 C 594.2125245000002 498.2799073 562.1269532000002 491.9720765 543.8623047000002 509.1021424 C 536.6200562000002 515.8945313 533.4136963000002 524.6247559 531.8609009000002 531.6930543 L 553.2163697000002 531.6930543 C 551.7714844 520.4978027 554.5926514 514.5149536 557.0991211 511.2200012 z M 593.1622314 474.8627625 C 588.6794433 471.3518067 583.6950683 471.80801399999996 582.6904296 471.9212037 C 586.9922484 469.9746705 591.9501952 470.73809819999997 595.1624755 473.8038026 C 599.0690307 477.5320436 598.4456786000001 482.80587779999996 598.3698119000001 483.36666879999996 C 598.1453247 482.2378235 597.1627808 477.9959717 593.1622314 474.8627625 z M 544.744751 516.2205811 C 540.5908202999999 520.9180298 537.3574828999999 525.4857789 534.8612061 529.5162964 C 535.5933838 526.2987671 537.6143189000001 519.4138184 543.5093384 512.9260864 C 549.5317383 506.29815670000005 556.3677979 503.63934320000004 559.5112305 502.63076780000006 C 555.0737305 505.9439087 549.8997192 510.3912354 544.744751 516.2205811 z M 641.2268066 470.156311 C 641.1655883000001 468.457489 640.7002563 455.53234860000003 632.4021606 450.7422485 C 631.5446167 450.2472229 627.22583 447.75421140000003 623.1069946 449.4479675 C 623.0697632 449.4632873 623.0184936 449.484497 622.9552002 449.5118103 C 622.5285034000001 449.69583129999995 619.2892456000001 451.1686401 618.8711548 454.2720642 C 618.6567993 455.8634949 619.1778565 457.933136 620.8126221 459.1549988 C 622.8293457 460.6624451 625.9257202 460.4194946 627.3869019 458.75790409999996 C 627.52771 458.5977784 628.6207276 457.3548279 628.357605 456.02227789999995 C 628.1565552000001 455.0041504999999 627.2780152 454.51199349999996 627.4602661 453.57943729999994 C 627.5646362 453.04525759999996 627.9498291 452.71078499999993 628.0487671 452.6248168999999 C 629.2183838 451.60894779999995 631.4718627999999 452.44122309999995 631.9315186 452.6248168999999 C 635.742981 454.14724729999995 638.9151612000001 460.6723632999999 637.1086426 465.4498595999999 C 635.7852173 468.9497679999999 632.7952271 468.92230219999993 628.6664429000001 473.5390624999999 C 625.8759766000001 476.65939329999986 624.3827515000002 479.9331969999999 623.5482178000001 482.27539059999987 C 623.5020142000001 481.2572936999999 623.2855225000001 479.48440549999987 622.2833252 477.5689391999999 C 621.5289307 476.1271056999999 620.6030884 475.12750239999986 619.9301148000001 474.50976559999987 C 616.8417969000001 489.50918579999984 610.5599366 496.77023309999987 605.3401490000001 500.63049309999985 C 590.5790406000001 511.5470885999998 572.3881837000001 504.08535759999984 560.3936158000001 516.8677367999999 C 555.7628175000001 521.8027343999998 553.9941407000001 527.6893309999999 553.2163697000001 531.6930541999999 C 554.6214600000001 529.6066283999999 557.0679932 526.3139037999999 560.7466431000001 522.9860839999999 C 582.2028199000001 503.5760802999999 607.2531739000001 517.6381225999999 627.2251587000002 500.7481689999999 C 636.7440186 492.6982117 641.6021729 480.5831299 641.2268066 470.156311 z M 620.5478516 455.669281 C 620.2813110999999 454.31243900000004 620.8138428 452.88919070000003 621.9156495 451.9629822 C 621.7860108 452.6274414 621.6619873999999 453.7333679 621.9597779 455.0368347 C 622.4102174 457.0089111 623.5569459 458.2552185 624.0776977999999 458.757904 C 622.3045654 458.5848999 620.8696899 457.3076477 620.5478516 455.669281 z M 615.2531128 499.2185669 C 609.9512940000001 505.586731 602.2979126 505.58901979999996 601.3103027000001 505.57229609999996 C 604.0579834000001 504.44912719999996 609.817749 501.6442565 614.3412475000001 495.45343009999993 C 617.1584472000001 491.59790029999994 618.4804687000001 487.8190611999999 619.1359252000001 485.27572619999995 C 619.2958984 486.3552246 620.2020264 493.274353 615.2531128 499.2185669 z M 631.9904175 475.5098877 C 629.3565674 478.4688721 627.4135132 481.3708191 625.989624 483.8638001 C 626.1778564 482.4406739 626.8241577 479.0173646 629.5194702 475.7452088 C 632.2623291 472.4154053 635.5708008 471.1313782 636.9321899 470.6857606 C 635.3671875 472.0130005 633.682373 473.6090088 631.9904175 475.5098877 z M 488.7515259 531.6930542 L 510.1069947 531.6930542 C 508.5541383 524.6247559 505.3478394 515.8945313 498.10556039999994 509.1021423 C 479.84088139999994 491.97207640000005 447.7553406999999 498.2799072 445.33462529999997 487.39364620000003 C 444.81668099999996 485.06445310000004 445.8409119 482.77642820000005 446.27590949999995 481.8047485 C 449.8421021 473.8382568 461.87103279999997 472.8677673 463.6897279 472.74487300000004 C 464.2541505 471.33233640000003 464.8381654 469.52935790000004 465.21932999999996 467.39126580000004 C 465.60791029999996 465.2115173 465.67861959999993 463.28390500000006 465.63113419999996 461.74353020000007 C 463.6727297 461.1121825000001 460.33789079999997 460.36114490000006 456.39477559999995 461.09640500000006 C 447.34649679999995 462.7835388000001 442.96774309999995 470.82888790000004 442.33425919999996 472.03887940000004 C 441.15762349999994 470.6857605 439.98104879999994 469.33270260000006 438.80441299999995 467.97958370000003 C 437.46945209999996 470.72579950000005 435.3303529 476.2386169 436.98068249999994 482.27539060000004 C 436.98068249999994 482.27545160000005 437.79183969999997 485.24252320000005 439.71655289999995 487.91992180000005 C 448.13922139999994 499.63635250000004 474.80001849999996 497.9839782000001 484.86871349999996 511.22000110000005 C 487.3752136 514.5149536 490.1963501 520.4978027 488.7515259 531.6930542 z M 443.598053 483.3666687 C 443.5221863 482.8058777 442.8988648 477.5320435 446.8053589 473.8038025 C 450.0176697 470.7380982 454.9756165 469.97467040000004 459.2774353 471.9212036 C 458.2728271 471.8080139 453.28839109999996 471.35180660000003 448.80560299999996 474.8627624 C 444.8050842 477.9959717 443.8225403 482.2378235 443.598053 483.3666687 z M 482.4566345 502.6307678 C 485.6000366 503.6393432 492.4360962 506.2981567 498.4585266 512.9260864 C 504.35351560000004 519.4138183 506.37448120000005 526.2987671000001 507.1066589 529.5162964 C 504.610382 525.4857787999999 501.37707520000004 520.9180298 497.223114 516.2205811 C 492.0681458 510.3912354 486.8941345 505.9439087 482.4566345 502.6307678 z M 414.7427368 500.7481689 C 434.7146606 517.6381225 459.7650146 503.5760803 481.2212219 522.9860839 C 484.8998413 526.3139037000001 487.34637449999997 529.6066283 488.7515259 531.6930541 C 487.9737244 527.689331 486.20501709999996 521.8027343 481.5742188 516.8677367 C 469.57968139999997 504.08535750000004 451.38879399999996 511.54708850000003 436.6276856 500.630493 C 431.407959 496.770233 425.1260682 489.5091856 422.0377198 474.5097655 C 421.3647767 475.1275023 420.4389039 476.1271056 419.68450939999997 477.5689391 C 418.6823732 479.4844054 418.4658204 481.2572936 418.41964729999995 482.2753905 C 417.5851441 479.93319690000004 416.09191899999996 476.6593932 413.30139169999995 473.53906240000003 C 409.17260749999997 468.9223021 406.18261729999995 468.94976800000006 404.85922249999993 465.44985950000006 C 403.05273449999993 460.67236320000006 406.2248535999999 454.14724720000004 410.03631599999994 452.6248168000001 C 410.49597179999995 452.4412230000001 412.74948129999996 451.6089477000001 413.91912849999994 452.6248168000001 C 414.0180664999999 452.71078480000006 414.40322879999997 453.04525750000005 414.50759899999997 453.5794372000001 C 414.6898195 454.5119934000001 413.81130989999997 455.0041503000001 413.61029069999995 456.0222778000001 C 413.34713759999994 457.3548278000001 414.4401857 458.5977783000001 414.58096329999995 458.7579040000001 C 416.04211439999995 460.4194946000001 419.13848889999997 460.6624450000001 421.15527359999993 459.15499870000014 C 422.79000869999993 457.93313590000014 423.31106579999994 455.8634948000001 423.09667979999995 454.27206410000014 C 422.67861949999997 451.16864000000015 419.43936169999995 449.69583120000016 419.01266489999995 449.5118102000001 C 418.94940199999996 449.48449700000015 418.89813239999995 449.4632873000001 418.8608704999999 449.44796740000015 C 414.7420044999999 447.7542113000002 410.4232483999999 450.24722280000015 409.56567399999994 450.74224840000016 C 401.26757829999997 455.5323485000002 400.8022462999999 468.45748890000016 400.74105849999995 470.15631090000016 C 400.3656921 480.5831299 405.2238159 492.6982117 414.7427368 500.7481689 z M 417.8901672 458.7579041 C 418.4109497 458.25521860000003 419.5576172 457.0089112 420.0080871 455.0368348 C 420.30587760000003 453.733368 420.1818847 452.62744150000003 420.0522155 451.9629823 C 421.1539916 452.8891908 421.6865234 454.3124391 421.4200134 455.66928110000003 C 421.098175 457.3076477 419.6632996 458.5848999 417.8901672 458.7579041 z M 422.8319397 485.2757263 C 423.4873657 487.8190613 424.80941770000004 491.59790039999996 427.62661740000004 495.45343019999996 C 432.15011590000006 501.64425659999995 437.90988160000006 504.44912719999996 440.65759270000007 505.5722962 C 439.66998280000007 505.58901979999996 432.0165405000001 505.586731 426.71475210000006 499.218567 C 421.7658386 493.274353 422.6719971 486.3552246 422.8319397 485.2757263 z M 405.0357056 470.6857605 C 406.39703369999995 471.13137820000003 409.7055359 472.41540530000003 412.4483643 475.74520870000003 C 415.14370729999996 479.01736450000004 415.7899781 482.4406738 415.9782105 483.8638 C 414.5543519 481.37081900000004 412.6113282 478.46887200000003 409.9774476 475.5098876 C 408.2854614 473.6090088 406.600708 472.0130005 405.0357056 470.6857605 z" stroke-linecap="round" />
</g>
		<g transform="matrix(1.15107704366831 0 0 1.15107704366831 0.3733709088949695 50.00473917627886)"  >
<linearGradient id="SVGID_6_497300" gradientUnits="userSpaceOnUse" gradientTransform="matrix(1 0 0 1 0 0)"  x1="372.7347412" y1="519.7504272" x2="669.2331543" y2="519.7504272">
<stop offset="0%" style="stop-color:rgb(131,80,29);stop-opacity: 1"/>
<stop offset="8.5858%" style="stop-color:rgb(241,208,131);stop-opacity: 1"/>
<stop offset="14.44138%" style="stop-color:rgb(152,100,36);stop-opacity: 1"/>
<stop offset="87.00466%" style="stop-color:rgb(179,126,44);stop-opacity: 1"/>
<stop offset="92.97503999999999%" style="stop-color:rgb(249,218,142);stop-opacity: 1"/>
<stop offset="100%" style="stop-color:rgb(174,121,41);stop-opacity: 1"/>
</linearGradient>
<path style="stroke: none; stroke-width: 1; stroke-dasharray: none; stroke-linecap: butt; stroke-dashoffset: 0; stroke-linejoin: miter; stroke-miterlimit: 4; fill: url(#SVGID_6_497300); fill-rule: nonzero; opacity: 1;"  paint-order="stroke"  transform=" translate(-520.9839429669025, -519.7504425)" d="M 668.0534668 513.4555664 C 667.6397705 514.2365722999999 666.8731689 515.4518433 665.5524292 516.5875244 C 664.2390747000001 517.7167969 662.9306641000001 518.2919922 662.0988159 518.5848389 C 662.5902099 517.7792359 663.5357666 515.9836426 663.6117554 513.5144043 C 663.6967163 510.756958 662.6488037 508.7349854 662.1704102 507.9255066 C 661.8631592 509.6619568 661.1538086 512.0888062 659.2877198 514.1320801 C 654.1760255 519.729187 645.8451539 516.4683228 636.7556763 519.8092652 C 632.7696534 521.2743531 627.643982 524.3742676 622.7539673 531.5753785 C 627.9517212 527.2068482000001 632.5089722 525.8275758000001 635.5790405 525.3392945 C 646.1339111 523.6607667000001 653.2893676 530.2595826 663.1116943000001 526.6336060000001 C 665.3613281 525.8031617000001 667.1003418 524.6765137000001 668.1711425000001 522.8684693000001 C 670.3969116 519.1102295 668.5037231 514.4881592 668.0534668 513.4555664 z M 640.6679077 521.5888672 C 637.6129761 522.2941895 634.7842407 523.0933838 632.196289 523.9273681999999 C 633.8124999 522.7839965999999 636.3333129 521.2925415 639.6972045 520.3534546 C 644.2922362 519.0705567 648.2183837 519.4440308 650.4190673 519.8239745999999 C 647.4098511 520.2211304 644.1409302 520.7870483 640.6679077 521.5888672 z M 373.7967224 522.8684692 C 374.8675232 524.6765136 376.60650630000004 525.8031616000001 378.8561401 526.6336059 C 388.6784668 530.2595825 395.8339538 523.6607665 406.3888244 525.3392944 C 409.4588928 525.8275755999999 414.0161437 527.2068481 419.2138976 531.5753784 C 414.323883 524.3742675999999 409.1982421 521.274353 405.2121886 519.8092651 C 396.1227111 516.4683226999999 387.7918395 519.7291869999999 382.6801451 514.13208 C 380.8140562 512.0888060999999 380.1047056 509.66195669999996 379.7974242 507.9255065 C 379.3190612 508.7349853 378.27117910000004 510.7569579 378.3561095 513.5144042 C 378.4321288 515.9836425 379.3776549 517.7792357 379.8690795 518.5848387999999 C 379.0371703 518.2919920999999 377.7287902 517.7167968 376.4154357 516.5875242999999 C 375.094696 515.4518430999999 374.3281249 514.2365722 373.91439809999997 513.4555662999999 C 373.4641724 514.4881592 371.5709839 519.1102295 373.7967224 522.8684692 z M 391.5488281 519.8239746 C 393.74945069999995 519.4440308000001 397.6756286 519.0705566 402.2706604 520.3534546000001 C 405.6345215 521.2925415000001 408.155365 522.7839966 409.7715759 523.9273682 C 407.1835937 523.0933838000001 404.3548584 522.2941895 401.2999878 521.5888672000001 C 397.8269348 520.7870483 394.5580139 520.2211304 391.5488281 519.8239746 z" stroke-linecap="round" />
</g>
		<g transform="matrix(1.15107704366831 0 0 1.15107704366831 -5.684342e-14 101.40634660397632)"  >
<linearGradient id="SVGID_7_497301" gradientUnits="userSpaceOnUse" gradientTransform="matrix(1 0 0 1 0 0)"  x1="313.9361572" y1="564.4057007" x2="727.3829956" y2="564.4057007">
<stop offset="0%" style="stop-color:rgb(131,80,29);stop-opacity: 1"/>
<stop offset="33.23442%" style="stop-color:rgb(217,172,92);stop-opacity: 1"/>
<stop offset="42.926520000000004%" style="stop-color:rgb(197,148,68);stop-opacity: 1"/>
<stop offset="61.898489999999995%" style="stop-color:rgb(253,214,134);stop-opacity: 1"/>
<stop offset="100%" style="stop-color:rgb(174,121,41);stop-opacity: 1"/>
</linearGradient>
<path style="stroke: none; stroke-width: 1; stroke-dasharray: none; stroke-linecap: butt; stroke-dashoffset: 0; stroke-linejoin: miter; stroke-miterlimit: 4; fill: url(#SVGID_7_497301); fill-rule: nonzero; opacity: 1;"  paint-order="stroke"  transform=" translate(-520.6595764, -564.40567015)" d="M 727.3829956 533.9909058 L 313.9361572 533.9909058 L 313.9361572 529.3951416 L 727.3829956 529.3951416 L 727.3829956 533.9909058 z M 397.3753052 596.1489258 L 313.9361573 596.1489258 L 313.9361573 599.4161987 L 397.37530519999996 599.4161987 L 397.37530519999996 596.1489258 z M 727.3829956 596.1489258 L 727.3829956 599.4161987 L 643.9438477 599.4161987 L 643.9438477 596.1489258 L 727.3829956 596.1489258 z" stroke-linecap="round" />
</g>
		<g transform="matrix(1.15107704366831 0 0 1.15107704366831 -5.684342e-14 -78.45291910316143)"  >
<linearGradient id="SVGID_8_497302" gradientUnits="userSpaceOnUse" gradientTransform="matrix(1 0 0 1 0 0)"  x1="520.6595459" y1="441.1824341" x2="520.6595459" y2="375.1228638">
<stop offset="0%" style="stop-color:rgb(217,172,92);stop-opacity: 1"/>
<stop offset="0%" style="stop-color:rgb(131,80,29);stop-opacity: 1"/>
<stop offset="29.00589%" style="stop-color:rgb(197,148,68);stop-opacity: 1"/>
<stop offset="68.68638%" style="stop-color:rgb(253,214,134);stop-opacity: 1"/>
<stop offset="100%" style="stop-color:rgb(174,121,41);stop-opacity: 1"/>
</linearGradient>
<path style="stroke: none; stroke-width: 1; stroke-dasharray: none; stroke-linecap: butt; stroke-dashoffset: 0; stroke-linejoin: miter; stroke-miterlimit: 4; fill: url(#SVGID_8_497302); fill-rule: nonzero; opacity: 1;"  paint-order="stroke"  transform=" translate(-520.6595764, -408.15264895)" d="M 520.6595459 375.1228638 L 521.7281494 380.3586121 C 522.3665161 383.4867249 524.8111572 385.9313355 527.93927 386.56973270000003 L 533.1749877999999 387.63830570000005 L 527.5653076 388.78317260000006 C 524.6640014 389.37530520000007 522.3966064 391.64270020000004 521.8044433 394.5440674000001 L 520.6595458 400.15371710000005 L 519.4815062 394.3815003 C 518.9094847 391.5787354 516.7191771 389.38836680000003 513.9163817 388.8163453 L 508.1441344 387.63830570000005 L 513.8513793 386.47351080000004 C 516.6935424 385.89346320000004 518.9147337999999 383.67227180000003 519.4948119 380.83007820000006 L 520.6595459 375.1228638 z M 415.3510742 421.8587952 C 414.77099610000005 424.70098879999995 412.5498352 426.92218019999996 409.70764160000004 427.50222779999996 L 404.00042720000005 428.66702269999996 L 409.77264400000007 429.84506229999994 C 412.57540890000007 430.41708379999994 414.76577750000007 432.60745239999994 415.3377990000001 435.41021729999994 L 416.51583860000005 441.18243409999997 L 417.66070550000006 435.5727844 C 418.2528381000001 432.6714172 420.5202636000001 430.4040222 423.4216003000001 429.8118896 L 429.0312805000001 428.66702269999996 L 423.7955322000001 427.59844969999995 C 420.6674194000001 426.96005249999996 418.2228088000001 424.5154418999999 417.58441160000007 421.38732909999993 L 416.51583860000005 416.1515807999999 L 415.3510742 421.8587952 z M 624.8032837 416.1515808 L 625.8718872 421.3873291 C 626.5102539 424.5154419 628.954895 426.96005249999996 632.0830077999999 427.5984497 L 637.3187255999999 428.6670227 L 631.7090453999999 429.81188960000003 C 628.8077391999999 430.40402220000004 626.5402832 432.6714172 625.9481810999999 435.57278440000005 L 624.8032836 441.1824341 L 623.625244 435.4102173 C 623.0532225 432.6074524 620.8628539 430.4170838 618.0601194999999 429.8450623 L 612.2879026999999 428.6670227 L 617.9950559999999 427.5022278 C 620.8372800999998 426.9221802 623.0584714999999 424.7009888 623.6385496999999 421.85879520000003 L 624.8032837 416.1515808 z" stroke-linecap="round" />
</g>
</g>
</g>
<g transform="matrix(1.9211538461538462 0 0 1.9211538461538462 640.2118072115386 685.3392027640679)" id="text-logo"  >
<g style=""  paint-order="stroke"   >
		<g transform="matrix(1 0 0 1 0 0)" id="text-logo-path-0"  >
<path style="stroke: none; stroke-width: 0; stroke-dasharray: none; stroke-linecap: butt; stroke-dashoffset: 0; stroke-linejoin: miter; stroke-miterlimit: 4; fill: rgb(230,187,106); fill-rule: nonzero; opacity: 1;"  paint-order="stroke"  transform=" translate(-147.05, 17.15)" d="M 4.12 -30.38 L 4.12 -3.92 C 4.12 -2.3 3.33 -1.23 1.62 -0.24 L 1.67 0 L 14.75 0 C 22.49 0 26.46 -3.68 26.46 -10.19 C 26.46 -15.19 22.79 -18.96 17.69 -20.04 C 21.76 -20.73 23.72 -23.13 23.72 -27.1 C 23.72 -31.36 19.99 -34.3 15.14 -34.3 L 1.67 -34.3 L 1.62 -34.05 C 3.33 -33.08 4.12 -32 4.12 -30.38 Z M 9.51 -0.49 L 9.51 -19.85 L 14.26 -19.85 C 19.11 -19.85 20.73 -17.2 20.73 -10.19 C 20.73 -3.68 18.47 -0.49 14.26 -0.49 Z M 9.51 -20.34 L 9.51 -33.81 L 13.87 -33.81 C 17.49 -33.81 18.67 -32 18.67 -27.1 C 18.67 -22.54 17 -20.34 13.87 -20.34 Z M 54.24 -34.3 L 43.76 -3.72 C 43.22 -2.16 41.7 -1.23 39.98 -0.24 L 40.03 0 L 45.42 0 L 45.47 -0.24 C 43.76 -1.23 43.71 -2.16 44.25 -3.72 L 47.24 -12.5 L 57.92 -12.5 L 61.2 -3.68 C 61.79 -2.16 61.79 -1.23 60.07 -0.24 L 60.12 0 L 70.41 0 L 70.46 -0.24 C 68.75 -1.23 67.18 -2.16 66.59 -3.68 L 55.22 -34.3 Z M 47.43 -12.99 L 52.33 -27.34 L 57.72 -12.99 Z M 88.45 -30.38 L 88.45 -3.92 C 88.45 -2.3 87.66 -1.23 85.95 -0.24 L 86 0 L 96.29 0 L 96.33 -0.24 C 94.62 -1.23 93.84 -2.3 93.84 -3.92 L 93.84 -14.95 L 97.22 -14.95 L 102.41 -3.58 C 103.1 -2.11 103.24 -1.23 101.53 -0.24 L 101.58 0 L 111.87 0 L 111.92 -0.24 C 110.2 -1.23 108.49 -2.11 107.8 -3.58 L 102.46 -15.39 C 106.97 -16.56 109.32 -19.89 109.32 -24.65 C 109.32 -30.82 105.45 -34.3 98.59 -34.3 L 86 -34.3 L 85.95 -34.05 C 87.66 -33.08 88.45 -32 88.45 -30.38 Z M 93.84 -15.44 L 93.84 -33.81 L 98.1 -33.81 C 102.41 -33.81 103.59 -31.26 103.59 -24.65 C 103.59 -17.89 102.26 -15.44 98.1 -15.44 Z M 127.4 0 L 151.41 0 L 151.41 -5.39 L 151.07 -5.49 C 149.6 -2.06 147.98 -0.49 145.53 -0.49 L 133.53 -0.49 L 150.92 -34.3 L 129.02 -34.3 L 129.02 -28.91 L 129.41 -28.81 C 130.88 -32.24 132.5 -33.81 134.9 -33.81 L 144.8 -33.81 Z M 180.37 0.49 C 188.55 0.49 193.84 -6.86 193.84 -17.15 C 193.84 -27.88 188.26 -34.79 180.37 -34.79 C 172.19 -34.79 166.89 -27.44 166.89 -17.15 C 166.89 -6.42 172.48 0.49 180.37 0.49 Z M 173.26 -17.15 C 173.26 -30.04 175.03 -34.3 180.37 -34.3 C 185.71 -34.3 187.47 -30.04 187.47 -17.15 C 187.47 -4.31 185.71 0 180.37 0 C 175.03 0 173.26 -4.31 173.26 -17.15 Z M 212.27 0.49 C 213.84 0.49 215.21 -0.83 215.21 -2.45 C 215.21 -4.07 213.84 -5.39 212.27 -5.39 C 210.65 -5.39 209.33 -4.07 209.33 -2.45 C 209.33 -0.83 210.65 0.49 212.27 0.49 Z M 233.19 -30.38 L 233.19 -3.92 C 233.19 -2.3 232.41 -1.23 230.69 -0.24 L 230.74 0 L 241.03 0 L 241.08 -0.24 C 239.37 -1.23 238.58 -2.3 238.58 -3.92 L 238.58 -13.96 L 243.82 -13.96 C 250.88 -13.96 254.56 -18.18 254.56 -24.16 C 254.56 -30.33 250.68 -34.3 243.82 -34.3 L 230.74 -34.3 L 230.69 -34.05 C 232.41 -33.08 233.19 -32 233.19 -30.38 Z M 238.58 -14.46 L 238.58 -33.81 L 243.33 -33.81 C 247.65 -33.81 248.82 -30.77 248.82 -24.16 C 248.82 -17.39 247.5 -14.46 243.33 -14.46 Z M 272.05 -30.38 L 272.05 -3.92 C 272.05 -2.3 271.26 -1.23 269.55 -0.24 L 269.6 0 L 292.48 0 L 292.48 -5.39 L 292.14 -5.49 C 290.67 -2.06 289.05 -0.49 286.6 -0.49 L 277.44 -0.49 L 277.44 -30.38 C 277.44 -32 278.22 -33.08 279.94 -34.05 L 279.89 -34.3 L 269.6 -34.3 L 269.55 -34.05 C 271.26 -33.08 272.05 -32 272.05 -30.38 Z" stroke-linecap="round" />
</g>
</g>
</g>
<g transform="matrix(1.9211538461538462 0 0 1.9211538461538462 639.4431655649038 763.823705510627)" id="tagline-4090714c-6e93-4d99-9b96-dedbf94a143f-logo"  >
<g style=""  paint-order="stroke"   >
		<g transform="matrix(1 0 0 1 5.684342e-14 0)" id="tagline-4090714c-6e93-4d99-9b96-dedbf94a143f-logo-path-0"  >
<path style="stroke: none; stroke-width: 0; stroke-dasharray: none; stroke-linecap: butt; stroke-dashoffset: 0; stroke-linejoin: miter; stroke-miterlimit: 4; fill: rgb(204,156,79); fill-rule: nonzero; opacity: 1;"  paint-order="stroke"  transform=" translate(-131.16, 9.065)" d="M 0.7 0 L 0.7 -0.04 Q 0.81 -0.2 0.95 -0.5 Q 1.08 -0.81 1.16 -1.28 L 1.16 -1.28 Q 1.27 -1.96 1.4 -2.82 Q 1.53 -3.67 1.67 -4.61 Q 1.82 -5.55 1.96 -6.53 Q 2.1 -7.51 2.23 -8.46 Q 2.36 -9.41 2.49 -10.3 Q 2.61 -11.18 2.71 -11.91 Q 2.8 -12.65 2.87 -13.19 Q 2.93 -13.73 2.96 -14 L 2.96 -14 L 4.2 -14 L 10.34 -2.52 L 16.44 -14 L 17.36 -14 L 18.96 -2.4 Q 19.03 -1.86 19.11 -1.46 Q 19.19 -1.07 19.27 -0.8 Q 19.35 -0.52 19.42 -0.34 Q 19.49 -0.16 19.56 -0.04 L 19.56 -0.04 L 19.56 0 L 17.1 0 L 17.1 -0.04 Q 17.15 -0.15 17.19 -0.39 Q 17.24 -0.63 17.24 -0.98 L 17.24 -0.98 Q 17.24 -1.1 17.23 -1.24 Q 17.22 -1.37 17.2 -1.52 L 17.2 -1.52 L 15.96 -10.88 L 10.2 -0.04 L 9.52 -0.12 L 3.72 -10.98 Q 3.38 -8.66 3.13 -6.7 L 3.13 -6.7 Q 3.02 -5.86 2.91 -5.02 Q 2.8 -4.19 2.72 -3.47 Q 2.64 -2.74 2.59 -2.19 Q 2.54 -1.64 2.54 -1.38 L 2.54 -1.38 Q 2.54 -1.04 2.56 -0.79 Q 2.58 -0.54 2.6 -0.36 L 2.6 -0.36 Q 2.63 -0.16 2.66 0 L 2.66 0 L 0.7 0 Z M 25.85 0 L 25.85 -0.04 Q 25.9 -0.24 25.95 -0.55 Q 26 -0.85 26.04 -1.3 Q 26.08 -1.75 26.1 -2.37 Q 26.12 -2.99 26.12 -3.82 L 26.12 -3.82 L 26.12 -10.18 Q 26.12 -11.01 26.1 -11.63 Q 26.08 -12.25 26.04 -12.7 Q 26 -13.15 25.95 -13.46 Q 25.9 -13.76 25.85 -13.96 L 25.85 -13.96 L 25.85 -14 L 28.18 -14 L 28.18 -13.96 Q 28.12 -13.76 28.07 -13.46 Q 28.01 -13.15 27.98 -12.7 Q 27.95 -12.25 27.92 -11.63 Q 27.9 -11.01 27.9 -10.18 L 27.9 -10.18 L 27.9 -3.82 Q 27.9 -2.99 27.92 -2.37 Q 27.95 -1.75 27.98 -1.3 Q 28.01 -0.85 28.07 -0.55 Q 28.12 -0.24 28.18 -0.04 L 28.18 -0.04 L 28.18 0 L 25.85 0 Z M 34.04 -4.52 L 33.66 -5.22 L 35.34 -6.14 L 35.34 -10.18 Q 35.34 -11.01 35.32 -11.63 Q 35.3 -12.25 35.27 -12.7 Q 35.23 -13.15 35.17 -13.46 Q 35.12 -13.76 35.06 -13.96 L 35.06 -13.96 L 35.06 -14 L 37.4 -14 L 37.4 -13.96 Q 37.35 -13.76 37.29 -13.46 Q 37.24 -13.15 37.2 -12.7 Q 37.17 -12.25 37.15 -11.63 Q 37.12 -11.01 37.12 -10.18 L 37.12 -10.18 L 37.12 -7.12 L 39.5 -8.42 L 39.88 -7.72 L 37.12 -6.2 L 37.12 -0.86 Q 38.27 -0.86 39.24 -0.96 Q 40.21 -1.05 40.93 -1.18 L 40.93 -1.18 Q 41.77 -1.32 42.46 -1.5 L 42.46 -1.5 L 42.18 0.08 Q 42.06 0.07 41.83 0.06 Q 41.59 0.05 41.31 0.04 Q 41.02 0.03 40.7 0.02 Q 40.38 0.02 40.1 0.01 Q 39.82 0.01 39.6 0 Q 39.38 0 39.28 0 L 39.28 0 L 35.06 0 L 35.06 -0.04 Q 35.12 -0.24 35.17 -0.55 Q 35.23 -0.85 35.27 -1.3 Q 35.3 -1.75 35.32 -2.37 Q 35.34 -2.99 35.34 -3.82 L 35.34 -3.82 L 35.34 -5.22 L 34.04 -4.52 Z M 54.65 -14.24 L 54.65 -14.24 Q 56.28 -14.24 57.66 -13.71 Q 59.04 -13.17 60.05 -12.21 Q 61.05 -11.25 61.62 -9.9 Q 62.19 -8.55 62.19 -6.92 L 62.19 -6.92 Q 62.19 -6 61.97 -5.1 Q 61.76 -4.2 61.34 -3.4 Q 60.93 -2.6 60.32 -1.92 Q 59.71 -1.24 58.94 -0.75 Q 58.16 -0.25 57.22 0.02 Q 56.29 0.3 55.2 0.3 L 55.2 0.3 Q 53.57 0.3 52.19 -0.22 Q 50.81 -0.74 49.8 -1.7 Q 48.8 -2.66 48.23 -4 Q 47.66 -5.34 47.66 -6.98 L 47.66 -6.98 Q 47.66 -7.91 47.88 -8.81 Q 48.09 -9.71 48.51 -10.52 Q 48.92 -11.33 49.52 -12.01 Q 50.13 -12.69 50.9 -13.18 Q 51.68 -13.68 52.62 -13.96 Q 53.56 -14.24 54.65 -14.24 Z M 55.2 -0.58 L 55.2 -0.58 Q 56.29 -0.58 57.19 -0.97 Q 58.08 -1.36 58.73 -2.1 Q 59.38 -2.84 59.74 -3.91 Q 60.11 -4.98 60.11 -6.34 L 60.11 -6.34 Q 60.11 -7.84 59.76 -9.13 Q 59.41 -10.41 58.73 -11.35 Q 58.04 -12.29 57.02 -12.83 Q 56 -13.36 54.65 -13.36 L 54.65 -13.36 Q 53.56 -13.36 52.66 -12.97 Q 51.77 -12.59 51.12 -11.86 Q 50.47 -11.12 50.11 -10.06 Q 49.74 -8.99 49.74 -7.64 L 49.74 -7.64 Q 49.74 -6.14 50.09 -4.85 Q 50.43 -3.55 51.11 -2.61 Q 51.79 -1.66 52.82 -1.12 Q 53.85 -0.58 55.2 -0.58 Z M 74.29 -13.6 L 74.22 -11.78 L 74.01 -11.78 Q 73.93 -12 73.76 -12.29 Q 73.59 -12.57 73.31 -12.82 Q 73.03 -13.07 72.64 -13.23 Q 72.24 -13.4 71.7 -13.4 L 71.7 -13.4 Q 71.22 -13.4 70.85 -13.25 Q 70.48 -13.11 70.23 -12.84 Q 69.98 -12.58 69.86 -12.22 Q 69.73 -11.86 69.73 -11.42 L 69.73 -11.42 Q 69.73 -10.71 70.13 -10.07 Q 70.52 -9.43 71.12 -8.81 Q 71.71 -8.18 72.41 -7.56 Q 73.1 -6.93 73.7 -6.26 Q 74.29 -5.59 74.69 -4.85 Q 75.08 -4.11 75.08 -3.26 L 75.08 -3.26 Q 75.08 -2.63 74.86 -1.99 Q 74.64 -1.35 74.18 -0.84 Q 73.72 -0.33 73 -0.01 Q 72.28 0.3 71.28 0.3 L 71.28 0.3 Q 70.73 0.3 70.22 0.2 Q 69.72 0.1 69.3 -0.05 Q 68.87 -0.21 68.53 -0.38 Q 68.2 -0.56 67.98 -0.7 L 67.98 -0.7 L 68.21 -2.86 L 68.45 -2.86 Q 68.56 -2.4 68.8 -1.99 Q 69.05 -1.57 69.4 -1.25 Q 69.76 -0.94 70.22 -0.75 Q 70.68 -0.56 71.22 -0.56 L 71.22 -0.56 Q 71.72 -0.56 72.12 -0.71 Q 72.51 -0.86 72.8 -1.13 Q 73.08 -1.4 73.23 -1.77 Q 73.38 -2.14 73.38 -2.58 L 73.38 -2.58 Q 73.38 -3.19 73.16 -3.72 Q 72.93 -4.24 72.57 -4.71 Q 72.2 -5.18 71.74 -5.62 Q 71.27 -6.05 70.79 -6.5 Q 70.3 -6.94 69.83 -7.41 Q 69.37 -7.88 69 -8.41 Q 68.64 -8.95 68.41 -9.56 Q 68.19 -10.17 68.19 -10.9 L 68.19 -10.9 Q 68.19 -11.67 68.49 -12.29 Q 68.78 -12.91 69.28 -13.35 Q 69.77 -13.79 70.39 -14.02 Q 71.02 -14.26 71.68 -14.26 L 71.68 -14.26 Q 72.17 -14.26 72.58 -14.18 Q 72.99 -14.1 73.32 -13.99 Q 73.65 -13.89 73.89 -13.78 Q 74.13 -13.67 74.29 -13.6 L 74.29 -13.6 Z M 72.89 -18.43 L 73.79 -16.9 Q 73.07 -16.66 72.33 -16.39 L 72.33 -16.39 Q 72.01 -16.27 71.65 -16.13 Q 71.3 -16 70.94 -15.84 Q 70.58 -15.68 70.21 -15.52 Q 69.85 -15.36 69.52 -15.19 L 69.52 -15.19 L 69.3 -15.55 Q 69.94 -15.97 70.57 -16.46 Q 71.2 -16.96 71.72 -17.4 L 71.72 -17.4 Q 72.33 -17.91 72.89 -18.43 L 72.89 -18.43 Z M 92.15 -13.66 L 92.81 -11.86 L 92.72 -11.82 Q 91.96 -12.52 90.89 -12.94 Q 89.82 -13.36 88.54 -13.36 L 88.54 -13.36 Q 87.31 -13.36 86.29 -12.97 Q 85.26 -12.59 84.53 -11.86 Q 83.79 -11.12 83.38 -10.06 Q 82.97 -8.99 82.97 -7.64 L 82.97 -7.64 Q 82.97 -6.14 83.36 -4.85 Q 83.75 -3.55 84.52 -2.61 Q 85.29 -1.66 86.45 -1.12 Q 87.61 -0.58 89.15 -0.58 L 89.15 -0.58 Q 89.71 -0.58 90.26 -0.69 Q 90.82 -0.81 91.33 -1.04 Q 91.85 -1.27 92.3 -1.6 Q 92.75 -1.92 93.13 -2.34 L 93.13 -2.34 L 93.23 -2.28 L 92.45 -0.28 Q 91.72 0 90.83 0.15 Q 89.95 0.3 89.05 0.3 L 89.05 0.3 Q 87.25 0.3 85.75 -0.22 Q 84.25 -0.74 83.17 -1.7 Q 82.09 -2.66 81.49 -4 Q 80.89 -5.34 80.89 -6.98 L 80.89 -6.98 Q 80.89 -7.91 81.13 -8.81 Q 81.37 -9.71 81.83 -10.52 Q 82.29 -11.33 82.96 -12.01 Q 83.63 -12.69 84.5 -13.18 Q 85.36 -13.68 86.4 -13.96 Q 87.44 -14.24 88.65 -14.24 L 88.65 -14.24 Q 90.54 -14.24 92.15 -13.66 L 92.15 -13.66 Z M 90.01 -18.43 L 90.91 -16.9 Q 90.19 -16.66 89.44 -16.39 L 89.44 -16.39 Q 89.12 -16.27 88.77 -16.13 Q 88.42 -16 88.06 -15.84 Q 87.7 -15.68 87.33 -15.52 Q 86.96 -15.36 86.63 -15.19 L 86.63 -15.19 L 86.42 -15.55 Q 87.05 -15.97 87.68 -16.46 Q 88.31 -16.96 88.84 -17.4 L 88.84 -17.4 Q 89.44 -17.91 90.01 -18.43 L 90.01 -18.43 Z M 111.15 -13.16 L 111.15 -13.16 Q 111.13 -12.07 111.12 -11.04 L 111.12 -11.04 Q 111.11 -10.61 111.1 -10.15 Q 111.1 -9.69 111.09 -9.24 Q 111.09 -8.8 111.08 -8.39 Q 111.08 -7.99 111.08 -7.68 L 111.08 -7.68 Q 111.08 -7.02 111.09 -6.09 Q 111.1 -5.17 111.11 -4.19 Q 111.13 -3.21 111.15 -2.31 Q 111.18 -1.42 111.22 -0.82 L 111.22 -0.82 Q 111.36 -0.8 111.59 -0.78 Q 111.82 -0.75 112.07 -0.74 Q 112.33 -0.72 112.57 -0.71 Q 112.81 -0.7 112.98 -0.7 L 112.98 -0.7 Q 113.66 -0.7 114.38 -0.8 Q 115.1 -0.89 115.77 -1.14 Q 116.44 -1.4 117.03 -1.84 Q 117.62 -2.29 118.06 -2.99 Q 118.51 -3.69 118.76 -4.68 Q 119.02 -5.67 119.02 -7.02 L 119.02 -7.02 Q 119.02 -8.52 118.65 -9.68 Q 118.29 -10.85 117.59 -11.65 Q 116.9 -12.45 115.87 -12.87 Q 114.84 -13.28 113.5 -13.28 L 113.5 -13.28 Q 113.23 -13.28 112.9 -13.27 Q 112.57 -13.25 112.24 -13.24 Q 111.92 -13.22 111.63 -13.2 Q 111.34 -13.17 111.15 -13.16 Z M 109.02 -14 L 109.02 -14.04 Q 109.24 -14.03 109.44 -14.02 L 109.44 -14.02 Q 109.6 -14.01 109.78 -14.01 Q 109.95 -14 110.06 -14 L 110.06 -14 Q 110.25 -14 110.68 -14.02 Q 111.12 -14.04 111.67 -14.06 Q 112.23 -14.08 112.83 -14.1 Q 113.43 -14.12 113.96 -14.12 L 113.96 -14.12 Q 115.37 -14.12 116.65 -13.77 Q 117.93 -13.42 118.9 -12.62 Q 119.87 -11.82 120.43 -10.52 Q 121 -9.22 121 -7.32 L 121 -7.32 Q 121 -5.97 120.7 -4.88 Q 120.4 -3.8 119.87 -2.97 Q 119.33 -2.14 118.58 -1.55 Q 117.83 -0.96 116.93 -0.58 Q 116.03 -0.2 115 -0.02 Q 113.98 0.16 112.88 0.16 L 112.88 0.16 Q 112.49 0.16 111.94 0.13 Q 111.39 0.11 110.83 0.08 Q 110.28 0.05 109.78 0.02 Q 109.29 0 109.02 0 L 109.02 0 L 109.02 -0.04 Q 109.07 -0.24 109.13 -0.55 Q 109.18 -0.85 109.22 -1.3 Q 109.26 -1.75 109.28 -2.37 Q 109.3 -2.99 109.3 -3.82 L 109.3 -3.82 L 109.3 -10.18 Q 109.3 -11.01 109.28 -11.64 Q 109.26 -12.27 109.22 -12.72 Q 109.18 -13.17 109.13 -13.49 Q 109.07 -13.8 109.02 -14 L 109.02 -14 Z M 133.68 -14.24 L 133.68 -14.24 Q 135.31 -14.24 136.69 -13.71 Q 138.07 -13.17 139.08 -12.21 Q 140.09 -11.25 140.65 -9.9 Q 141.22 -8.55 141.22 -6.92 L 141.22 -6.92 Q 141.22 -6 141 -5.1 Q 140.79 -4.2 140.37 -3.4 Q 139.96 -2.6 139.35 -1.92 Q 138.75 -1.24 137.97 -0.75 Q 137.2 -0.25 136.26 0.02 Q 135.32 0.3 134.24 0.3 L 134.24 0.3 Q 132.61 0.3 131.22 -0.22 Q 129.84 -0.74 128.84 -1.7 Q 127.83 -2.66 127.26 -4 Q 126.7 -5.34 126.7 -6.98 L 126.7 -6.98 Q 126.7 -7.91 126.91 -8.81 Q 127.13 -9.71 127.54 -10.52 Q 127.96 -11.33 128.56 -12.01 Q 129.16 -12.69 129.93 -13.18 Q 130.71 -13.68 131.65 -13.96 Q 132.6 -14.24 133.68 -14.24 Z M 134.24 -0.58 L 134.24 -0.58 Q 135.32 -0.58 136.22 -0.97 Q 137.12 -1.36 137.77 -2.1 Q 138.42 -2.84 138.78 -3.91 Q 139.14 -4.98 139.14 -6.34 L 139.14 -6.34 Q 139.14 -7.84 138.79 -9.13 Q 138.45 -10.41 137.76 -11.35 Q 137.08 -12.29 136.06 -12.83 Q 135.04 -13.36 133.68 -13.36 L 133.68 -13.36 Q 132.6 -13.36 131.7 -12.97 Q 130.8 -12.59 130.15 -11.86 Q 129.5 -11.12 129.14 -10.06 Q 128.78 -8.99 128.78 -7.64 L 128.78 -7.64 Q 128.78 -6.14 129.12 -4.85 Q 129.46 -3.55 130.14 -2.61 Q 130.83 -1.66 131.85 -1.12 Q 132.88 -0.58 134.24 -0.58 Z M 159.47 -10.18 L 159.47 -0.86 Q 160.63 -0.86 161.59 -0.96 Q 162.56 -1.05 163.28 -1.18 L 163.28 -1.18 Q 164.12 -1.32 164.81 -1.5 L 164.81 -1.5 L 164.53 0.08 Q 164.41 0.07 164.18 0.06 Q 163.95 0.05 163.66 0.04 Q 163.37 0.03 163.05 0.02 Q 162.73 0.02 162.45 0.01 Q 162.17 0.01 161.95 0 Q 161.73 0 161.63 0 L 161.63 0 L 157.41 0 L 157.41 -0.04 Q 157.47 -0.24 157.52 -0.55 Q 157.58 -0.85 157.62 -1.3 Q 157.66 -1.75 157.68 -2.37 Q 157.7 -2.99 157.7 -3.82 L 157.7 -3.82 L 157.7 -10.18 Q 157.7 -11.01 157.68 -11.63 Q 157.66 -12.25 157.62 -12.7 Q 157.58 -13.15 157.52 -13.46 Q 157.47 -13.76 157.41 -13.96 L 157.41 -13.96 L 157.41 -14 L 159.76 -14 L 159.76 -13.96 Q 159.7 -13.76 159.64 -13.46 Q 159.59 -13.15 159.56 -12.7 Q 159.52 -12.25 159.5 -11.63 Q 159.47 -11.01 159.47 -10.18 L 159.47 -10.18 Z M 180.63 -4.7 L 180.63 -10.18 Q 180.63 -11.01 180.61 -11.63 Q 180.59 -12.25 180.55 -12.7 Q 180.51 -13.15 180.46 -13.46 Q 180.42 -13.76 180.36 -13.96 L 180.36 -13.96 L 180.36 -14 L 182.1 -14 L 182.1 -13.96 Q 182.04 -13.76 181.98 -13.46 Q 181.93 -13.15 181.9 -12.7 Q 181.86 -12.25 181.84 -11.63 Q 181.81 -11.01 181.81 -10.18 L 181.81 -10.18 L 181.81 -4.9 Q 181.81 -3.51 181.41 -2.52 Q 181.01 -1.53 180.3 -0.9 Q 179.59 -0.27 178.59 0.01 Q 177.59 0.3 176.41 0.3 L 176.41 0.3 Q 175.23 0.3 174.21 0.03 Q 173.19 -0.24 172.43 -0.85 Q 171.68 -1.46 171.25 -2.44 Q 170.82 -3.41 170.82 -4.8 L 170.82 -4.8 L 170.82 -10.18 Q 170.82 -11.01 170.8 -11.63 Q 170.78 -12.25 170.74 -12.7 Q 170.7 -13.15 170.65 -13.46 Q 170.59 -13.76 170.53 -13.96 L 170.53 -13.96 L 170.53 -14 L 172.88 -14 L 172.88 -13.96 Q 172.82 -13.76 172.76 -13.46 Q 172.71 -13.15 172.67 -12.7 Q 172.63 -12.25 172.61 -11.63 Q 172.59 -11.01 172.59 -10.18 L 172.59 -10.18 L 172.59 -4.7 Q 172.59 -3.54 172.94 -2.78 Q 173.29 -2.02 173.85 -1.58 Q 174.42 -1.13 175.14 -0.96 Q 175.87 -0.78 176.62 -0.78 L 176.62 -0.78 Q 177.37 -0.78 178.09 -0.96 Q 178.81 -1.13 179.38 -1.58 Q 179.94 -2.02 180.28 -2.78 Q 180.63 -3.54 180.63 -4.7 L 180.63 -4.7 Z M 188.81 0 L 188.81 -0.04 Q 188.87 -0.24 188.92 -0.55 Q 188.98 -0.85 189.02 -1.3 Q 189.05 -1.75 189.07 -2.37 Q 189.09 -2.99 189.09 -3.82 L 189.09 -3.82 L 189.09 -10.18 Q 189.09 -11.01 189.07 -11.63 Q 189.05 -12.25 189.02 -12.7 Q 188.98 -13.15 188.92 -13.46 Q 188.87 -13.76 188.81 -13.96 L 188.81 -13.96 L 188.81 -14 L 191.15 -14 L 191.15 -13.96 Q 191.1 -13.76 191.04 -13.46 Q 190.99 -13.15 190.95 -12.7 Q 190.92 -12.25 190.9 -11.63 Q 190.87 -11.01 190.87 -10.18 L 190.87 -10.18 L 190.87 -8 L 196.57 -12.66 Q 197.53 -13.44 197.53 -14 L 197.53 -14 L 200.28 -14 L 200.28 -13.96 Q 199.7 -13.83 199.11 -13.44 Q 198.52 -13.06 197.85 -12.5 L 197.85 -12.5 L 192.81 -8.28 L 198.88 -1.62 Q 199.26 -1.23 199.53 -0.97 Q 199.8 -0.71 200 -0.54 Q 200.21 -0.37 200.38 -0.26 Q 200.55 -0.15 200.73 -0.04 L 200.73 -0.04 L 200.73 0 L 197.87 0 Q 197.83 -0.09 197.74 -0.22 Q 197.65 -0.36 197.53 -0.51 Q 197.4 -0.65 197.26 -0.81 Q 197.12 -0.97 196.99 -1.1 L 196.99 -1.1 L 190.87 -7.82 L 190.87 -3.82 Q 190.87 -2.99 190.9 -2.37 Q 190.92 -1.75 190.95 -1.3 Q 190.99 -0.85 191.04 -0.55 Q 191.1 -0.24 191.15 -0.04 L 191.15 -0.04 L 191.15 0 L 188.81 0 Z M 211.64 -13.6 L 211.57 -11.78 L 211.36 -11.78 Q 211.28 -12 211.11 -12.29 Q 210.94 -12.57 210.66 -12.82 Q 210.38 -13.07 209.98 -13.23 Q 209.59 -13.4 209.05 -13.4 L 209.05 -13.4 Q 208.57 -13.4 208.2 -13.25 Q 207.83 -13.11 207.58 -12.84 Q 207.33 -12.58 207.21 -12.22 Q 207.08 -11.86 207.08 -11.42 L 207.08 -11.42 Q 207.08 -10.71 207.47 -10.07 Q 207.87 -9.43 208.46 -8.81 Q 209.06 -8.18 209.75 -7.56 Q 210.45 -6.93 211.04 -6.26 Q 211.64 -5.59 212.03 -4.85 Q 212.43 -4.11 212.43 -3.26 L 212.43 -3.26 Q 212.43 -2.63 212.21 -1.99 Q 211.99 -1.35 211.53 -0.84 Q 211.07 -0.33 210.35 -0.01 Q 209.63 0.3 208.63 0.3 L 208.63 0.3 Q 208.07 0.3 207.57 0.2 Q 207.07 0.1 206.64 -0.05 Q 206.22 -0.21 205.88 -0.38 Q 205.54 -0.56 205.33 -0.7 L 205.33 -0.7 L 205.55 -2.86 L 205.8 -2.86 Q 205.91 -2.4 206.15 -1.99 Q 206.39 -1.57 206.75 -1.25 Q 207.11 -0.94 207.57 -0.75 Q 208.03 -0.56 208.57 -0.56 L 208.57 -0.56 Q 209.07 -0.56 209.47 -0.71 Q 209.86 -0.86 210.14 -1.13 Q 210.43 -1.4 210.58 -1.77 Q 210.73 -2.14 210.73 -2.58 L 210.73 -2.58 Q 210.73 -3.19 210.51 -3.72 Q 210.28 -4.24 209.92 -4.71 Q 209.55 -5.18 209.08 -5.62 Q 208.62 -6.05 208.13 -6.5 Q 207.64 -6.94 207.18 -7.41 Q 206.72 -7.88 206.35 -8.41 Q 205.98 -8.95 205.76 -9.56 Q 205.54 -10.17 205.54 -10.9 L 205.54 -10.9 Q 205.54 -11.67 205.83 -12.29 Q 206.13 -12.91 206.62 -13.35 Q 207.12 -13.79 207.74 -14.02 Q 208.37 -14.26 209.03 -14.26 L 209.03 -14.26 Q 209.52 -14.26 209.93 -14.18 Q 210.34 -14.1 210.67 -13.99 Q 210.99 -13.89 211.24 -13.78 Q 211.48 -13.67 211.64 -13.6 L 211.64 -13.6 Z M 228.85 -4.7 L 228.85 -10.18 Q 228.85 -11.01 228.83 -11.63 Q 228.81 -12.25 228.77 -12.7 Q 228.73 -13.15 228.69 -13.46 Q 228.64 -13.76 228.58 -13.96 L 228.58 -13.96 L 228.58 -14 L 230.32 -14 L 230.32 -13.96 Q 230.26 -13.76 230.2 -13.46 Q 230.15 -13.15 230.12 -12.7 Q 230.08 -12.25 230.06 -11.63 Q 230.03 -11.01 230.03 -10.18 L 230.03 -10.18 L 230.03 -4.9 Q 230.03 -3.51 229.63 -2.52 Q 229.23 -1.53 228.52 -0.9 Q 227.81 -0.27 226.81 0.01 Q 225.81 0.3 224.63 0.3 L 224.63 0.3 Q 223.45 0.3 222.43 0.03 Q 221.41 -0.24 220.65 -0.85 Q 219.9 -1.46 219.47 -2.44 Q 219.04 -3.41 219.04 -4.8 L 219.04 -4.8 L 219.04 -10.18 Q 219.04 -11.01 219.02 -11.63 Q 219 -12.25 218.96 -12.7 Q 218.92 -13.15 218.87 -13.46 Q 218.81 -13.76 218.75 -13.96 L 218.75 -13.96 L 218.75 -14 L 221.1 -14 L 221.1 -13.96 Q 221.04 -13.76 220.99 -13.46 Q 220.93 -13.15 220.89 -12.7 Q 220.85 -12.25 220.83 -11.63 Q 220.81 -11.01 220.81 -10.18 L 220.81 -10.18 L 220.81 -4.7 Q 220.81 -3.54 221.16 -2.78 Q 221.51 -2.02 222.07 -1.58 Q 222.64 -1.13 223.36 -0.96 Q 224.09 -0.78 224.84 -0.78 L 224.84 -0.78 Q 225.59 -0.78 226.31 -0.96 Q 227.04 -1.13 227.6 -1.58 Q 228.16 -2.02 228.5 -2.78 Q 228.85 -3.54 228.85 -4.7 L 228.85 -4.7 Z M 242.94 -13.6 L 242.87 -11.78 L 242.66 -11.78 Q 242.58 -12 242.41 -12.29 Q 242.24 -12.57 241.96 -12.82 Q 241.68 -13.07 241.28 -13.23 Q 240.89 -13.4 240.35 -13.4 L 240.35 -13.4 Q 239.87 -13.4 239.5 -13.25 Q 239.13 -13.11 238.88 -12.84 Q 238.63 -12.58 238.51 -12.22 Q 238.38 -11.86 238.38 -11.42 L 238.38 -11.42 Q 238.38 -10.71 238.77 -10.07 Q 239.17 -9.43 239.77 -8.81 Q 240.36 -8.18 241.05 -7.56 Q 241.75 -6.93 242.34 -6.26 Q 242.94 -5.59 243.33 -4.85 Q 243.73 -4.11 243.73 -3.26 L 243.73 -3.26 Q 243.73 -2.63 243.51 -1.99 Q 243.29 -1.35 242.83 -0.84 Q 242.37 -0.33 241.65 -0.01 Q 240.93 0.3 239.93 0.3 L 239.93 0.3 Q 239.38 0.3 238.87 0.2 Q 238.37 0.1 237.94 -0.05 Q 237.52 -0.21 237.18 -0.38 Q 236.85 -0.56 236.63 -0.7 L 236.63 -0.7 L 236.86 -2.86 L 237.1 -2.86 Q 237.21 -2.4 237.45 -1.99 Q 237.7 -1.57 238.05 -1.25 Q 238.41 -0.94 238.87 -0.75 Q 239.33 -0.56 239.87 -0.56 L 239.87 -0.56 Q 240.37 -0.56 240.77 -0.71 Q 241.16 -0.86 241.45 -1.13 Q 241.73 -1.4 241.88 -1.77 Q 242.03 -2.14 242.03 -2.58 L 242.03 -2.58 Q 242.03 -3.19 241.81 -3.72 Q 241.58 -4.24 241.22 -4.71 Q 240.85 -5.18 240.39 -5.62 Q 239.92 -6.05 239.43 -6.5 Q 238.95 -6.94 238.48 -7.41 Q 238.02 -7.88 237.65 -8.41 Q 237.29 -8.95 237.06 -9.56 Q 236.84 -10.17 236.84 -10.9 L 236.84 -10.9 Q 236.84 -11.67 237.13 -12.29 Q 237.43 -12.91 237.92 -13.35 Q 238.42 -13.79 239.04 -14.02 Q 239.67 -14.26 240.33 -14.26 L 240.33 -14.26 Q 240.82 -14.26 241.23 -14.18 Q 241.64 -14.1 241.97 -13.99 Q 242.29 -13.89 242.54 -13.78 Q 242.78 -13.67 242.94 -13.6 L 242.94 -13.6 Z M 260.15 -4.7 L 260.15 -10.18 Q 260.15 -11.01 260.13 -11.63 Q 260.11 -12.25 260.07 -12.7 Q 260.04 -13.15 259.99 -13.46 Q 259.94 -13.76 259.88 -13.96 L 259.88 -13.96 L 259.88 -14 L 261.62 -14 L 261.62 -13.96 Q 261.56 -13.76 261.5 -13.46 Q 261.45 -13.15 261.42 -12.7 Q 261.38 -12.25 261.36 -11.63 Q 261.33 -11.01 261.33 -10.18 L 261.33 -10.18 L 261.33 -4.9 Q 261.33 -3.51 260.93 -2.52 Q 260.53 -1.53 259.82 -0.9 Q 259.11 -0.27 258.11 0.01 Q 257.12 0.3 255.93 0.3 L 255.93 0.3 Q 254.75 0.3 253.73 0.03 Q 252.71 -0.24 251.95 -0.85 Q 251.2 -1.46 250.77 -2.44 Q 250.34 -3.41 250.34 -4.8 L 250.34 -4.8 L 250.34 -10.18 Q 250.34 -11.01 250.32 -11.63 Q 250.3 -12.25 250.26 -12.7 Q 250.22 -13.15 250.17 -13.46 Q 250.11 -13.76 250.05 -13.96 L 250.05 -13.96 L 250.05 -14 L 252.4 -14 L 252.4 -13.96 Q 252.34 -13.76 252.29 -13.46 Q 252.23 -13.15 252.19 -12.7 Q 252.15 -12.25 252.13 -11.63 Q 252.12 -11.01 252.12 -10.18 L 252.12 -10.18 L 252.12 -4.7 Q 252.12 -3.54 252.46 -2.78 Q 252.81 -2.02 253.38 -1.58 Q 253.94 -1.13 254.66 -0.96 Q 255.39 -0.78 256.14 -0.78 L 256.14 -0.78 Q 256.89 -0.78 257.61 -0.96 Q 258.34 -1.13 258.9 -1.58 Q 259.46 -2.02 259.81 -2.78 Q 260.15 -3.54 260.15 -4.7 L 260.15 -4.7 Z" stroke-linecap="round" />
</g>
</g>
</g>
</svg>